<?xml version="1.0" encoding="UTF-8"?>
<svg width="47px" height="32px" viewBox="0 0 47 32" version="1.1" xmlns="http://www.w3.org/2000/svg" xmlns:xlink="http://www.w3.org/1999/xlink">
    <!-- Generator: Sketch 47.1 (45422) - http://www.bohemiancoding.com/sketch -->
    <title>idioma-footer@1x</title>
    <desc>Created with Sketch.</desc>
    <defs>
        <polygon id="path-1" points="23.9207953 16.7939394 0.00018774414 16.7939394 0.00018774414 0.218980606 23.9207953 0.218980606 23.9207953 16.7939394"></polygon>
        <polygon id="path-3" points="0.170614535 0.609494318 22.9064827 0.609494318 22.9064827 17.8853216 0.170614535 17.8853216 0.170614535 0.609494318"></polygon>
        <polygon id="path-5" points="24.1514654 16.7939394 0.366563637 16.7939394 0.366563637 0.218980606 24.1514654 0.218980606"></polygon>
        <polygon id="path-7" points="0.539573693 0.609494318 23.2743368 0.609494318 23.2743368 17.8853216 0.539573693 17.8853216 0.539573693 0.609494318"></polygon>
    </defs>
    <g id="Symbols" stroke="none" stroke-width="1" fill="none" fill-rule="evenodd">
        <g id="footer" transform="translate(-189.000000, -24.000000)">
            <g id="idioma-footer">
                <g transform="translate(189.000000, 24.000000)">
                    <g id="Group-20">
                        <g id="Group-3" transform="translate(0.000000, 15.000000)">
                            <mask id="mask-2" fill="white">
                                <use xlink:href="#path-1"></use>
                            </mask>
                            <g id="Clip-2"></g>
                            <path d="M0.176955623,12.3796473 L3.27108328,16.5417624 C3.5262079,16.8853685 3.9548766,16.8778988 4.19961824,16.5208473 C8.01313799,10.9798261 16.3284207,3.94486545 23.6617702,3.26960485 C23.9035453,3.2486897 24.0088584,2.86624121 23.833831,2.64962 L21.9485787,0.301147273 C21.2825848,0.247365455 20.6106578,0.218980606 19.9313143,0.218980606 C11.2600438,0.218980606 3.75611672,4.75607455 0.111691185,11.3652624 C-0.0603696049,11.6774958 -0.0292206687,12.1032685 0.176955623,12.3796473" id="Fill-1" fill="#2E3131" mask="url(#mask-2)"></path>
                        </g>
                        <g id="Group-6" transform="translate(1.000000, 0.000000)">
                            <mask id="mask-4" fill="white">
                                <use xlink:href="#path-3"></use>
                            </mask>
                            <g id="Clip-5"></g>
                            <path d="M0.314604255,5.87783864 C0.314604255,5.87783864 1.40481702,4.0226625 2.41344924,2.74287273 C3.93381398,0.810582955 4.76593556,0.608901136 4.76593556,0.608901136 C8.44151003,6.35238409 15.1251818,10.7211682 22.9064827,11.0355545 L22.9064827,17.0978727 C22.9064827,17.4938216 22.6632243,17.8230375 22.351735,17.8423159 C21.8696681,17.870492 21.3816681,17.8853216 20.8907015,17.8853216 C12.140817,17.8853216 3.34940061,13.4409068 0.222640729,6.52737273 C0.126227356,6.31234432 0.167759271,6.03948068 0.314604255,5.87783864" id="Fill-4" fill="#374C9B" mask="url(#mask-4)"></path>
                        </g>
                        <path d="M22,17.6605505 C21.8028024,17.6657929 21.611239,17.6775885 21.4140413,17.6775885 C18.1870429,17.6775885 14.9572274,17.0825688 12.0358853,16 C11.6062762,16.1376147 15.129071,18.593709 17.516571,19 C19.0096388,18.3643512 20.5182006,17.897772 22,17.6605505" id="Fill-7" fill="#0A1E2B"></path>
                        <g id="Group-11" transform="translate(22.000000, 15.000000)">
                            <mask id="mask-6" fill="white">
                                <use xlink:href="#path-5"></use>
                            </mask>
                            <g id="Clip-10"></g>
                            <path d="M0.541714217,12.3796473 L3.61826161,16.5417624 C3.87341151,16.8853685 4.29964458,16.8778988 4.54299565,16.5208473 C8.33484768,10.9798261 16.6028844,3.94486545 23.8945672,3.26960485 C24.1349686,3.2486897 24.2382084,2.86624121 24.0656504,2.64962 L22.1896349,0.301147273 C21.5288999,0.247365455 20.8607906,0.218980606 20.1853071,0.218980606 C11.5633051,0.218980606 4.10053917,4.75607455 0.4768206,11.3652624 C0.307212282,11.6774958 0.336709381,12.1032685 0.541714217,12.3796473" id="Fill-9" fill="#2E3131" mask="url(#mask-6)"></path>
                        </g>
                        <g id="Group-14" transform="translate(23.000000, 0.000000)">
                            <mask id="mask-8" fill="white">
                                <use xlink:href="#path-7"></use>
                            </mask>
                            <g id="Clip-13"></g>
                            <path d="M0.683941641,5.87783864 C0.683941641,5.87783864 1.77415441,4.0226625 2.78278663,2.74287273 C4.30315137,0.810582955 5.13378967,0.608901136 5.13378967,0.608901136 C8.81084742,6.35238409 15.4945191,10.7211682 23.2743368,11.0355545 L23.2743368,17.0978727 C23.2743368,17.4938216 23.0310784,17.8230375 22.7210723,17.8423159 C22.2375222,17.870492 21.7510055,17.8853216 21.2600389,17.8853216 C12.5101544,17.8853216 3.71725471,13.4409068 0.591978116,6.52737273 C0.495564742,6.31234432 0.535613374,6.03948068 0.683941641,5.87783864" id="Fill-12" fill="#374C9B" mask="url(#mask-8)"></path>
                        </g>
                        <path d="M44,17.6605505 C43.8041833,17.6657929 43.6111842,17.6775885 43.4139588,17.6775885 C40.1879145,17.6775885 36.9562352,17.0825688 34.0358904,16 C33.6062207,16.1376147 37.1295119,18.593709 39.5173481,19 C41.0092175,18.3643512 42.5194006,17.897772 44,17.6605505" id="Fill-15" fill="#0A1E2B"></path>
                    </g>
                </g>
            </g>
        </g>
    </g>
</svg>