<?xml version="1.0" encoding="UTF-8"?>
<svg width="213px" height="47px" viewBox="0 0 213 47" version="1.1" xmlns="http://www.w3.org/2000/svg" xmlns:xlink="http://www.w3.org/1999/xlink">
    <!-- Generator: Sketch 47.1 (45422) - http://www.bohemiancoding.com/sketch -->
    <title>Logo-white@1x</title>
    <desc>Created with Sketch.</desc>
    <defs>
        <polygon id="path-1" points="0.39347378 0.0399933651 34.2035813 0.0399933651 34.2035813 26.2196502 0.39347378 26.2196502"></polygon>
        <polygon id="path-3" points="26.8639365 22.8032345 0.000279987309 22.8032345 0.000279987309 0.194034795 26.8639365 0.194034795 26.8639365 22.8032345"></polygon>
        <polygon id="path-5" points="0.0881301765 0.0399933651 33.8968033 0.0399933651 33.8968033 26.2196502 0.0881301765 26.2196502"></polygon>
        <polygon id="path-7" points="27.8780745 22.8032345 0.594673325 22.8032345 0.594673325 0.194034795 27.8780745 0.194034795"></polygon>
        <polygon id="path-9" points="0 45.606469 213 45.606469 213 0 0 0"></polygon>
    </defs>
    <g id="Symbols" stroke="none" stroke-width="1" fill="none" fill-rule="evenodd">
        <g id="Logo-white">
            <g>
                <g id="Group-3" transform="translate(1.132979, 0.000000)">
                    <mask id="mask-2" fill="white">
                        <use xlink:href="#path-1"></use>
                    </mask>
                    <g id="Clip-2"></g>
                    <path d="M0.608029693,8.02266904 C0.608029693,8.02266904 2.22985541,5.21260892 3.72771993,3.27187825 C5.99001186,0.346047854 7.22549183,0.0387304168 7.22549183,0.0387304168 C12.6942468,8.74254962 22.6338692,15.3603991 34.2035813,15.8403195 L34.2035813,25.026164 C34.2035813,25.6239595 33.8420278,26.127034 33.3792393,26.1522929 C32.6602644,26.1964961 31.9371574,26.2196502 31.2057863,26.2196502 C18.1939921,26.2196502 5.12021743,19.4839255 0.471672372,9.00776877 C0.32705097,8.68150711 0.389031571,8.26894398 0.608029693,8.02266904" id="Fill-1" fill="#FEFEFE" mask="url(#mask-2)"></path>
                </g>
                <g id="Group-6" transform="translate(0.000000, 23.943396)">
                    <mask id="mask-4" fill="white">
                        <use xlink:href="#path-3"></use>
                    </mask>
                    <g id="Clip-5"></g>
                    <path d="M18.1710265,0.194034795 C10.331511,2.86201323 3.90176956,8.09846508 0.168168903,14.7611556 C-0.091196072,15.2234394 -0.0430880524,15.8557109 0.264384943,16.2640961 L4.92458789,22.4292615 C5.30945205,22.9392247 5.95368118,22.9267866 6.32390376,22.4002392 C10.5741427,16.3221407 18.5370658,9.03754374 26.8639365,5.25427983 C23.0947777,4.56810978 17.541439,0.455235481 18.1710265,0.194034795" id="Fill-4" fill="#FEFEFE" mask="url(#mask-4)"></path>
                </g>
                <path d="M28.3380638,28.5040431 C28.3335319,28.5063235 28.329,28.5086038 28.3244681,28.5097439 C28.329,28.5086038 28.3335319,28.5063235 28.3380638,28.5040431" id="Fill-7" fill="#FEFEFE"></path>
                <g id="Group-11" transform="translate(36.006158, 0.000000)">
                    <mask id="mask-6" fill="white">
                        <use xlink:href="#path-5"></use>
                    </mask>
                    <g id="Clip-10"></g>
                    <path d="M0.301251659,8.02266904 C0.301251659,8.02266904 1.92307738,5.21260892 3.42300792,3.27187825 C5.68323382,0.346047854 6.92077982,0.0387304168 6.92077982,0.0387304168 C12.3874688,8.74254962 22.3270911,15.3603991 33.8968033,15.8403195 L33.8968033,25.026164 C33.8968033,25.6239595 33.5352498,26.127034 33.0724613,26.1522929 C32.3534863,26.1964961 31.6303793,26.2196502 30.8990082,26.2196502 C17.8872141,26.2196502 4.81343939,19.4839255 0.166960357,9.00776877 C0.0223389556,8.68150711 0.0822535363,8.26894398 0.301251659,8.02266904" id="Fill-9" fill="#FEFEFE" mask="url(#mask-6)"></path>
                </g>
                <g id="Group-14" transform="translate(33.989362, 23.943396)">
                    <mask id="mask-8" fill="white">
                        <use xlink:href="#path-7"></use>
                    </mask>
                    <g id="Clip-13"></g>
                    <path d="M0.765185505,14.7611556 C0.501767952,15.2234394 0.55062766,15.8557109 0.86290492,16.2640961 L5.59592354,22.4292615 C5.9868012,22.9392247 6.64109641,22.9267866 7.01497939,22.4002392 C11.3316283,16.3221407 19.4189721,9.03754374 27.8780745,5.25427983 C24.0500226,4.56810978 18.4099129,0.455235481 19.0493378,0.194034795 C11.0873298,2.86201323 4.55712367,8.09846508 0.765185505,14.7611556 Z" id="Fill-12" fill="#FEFEFE" mask="url(#mask-8)"></path>
                </g>
                <path d="M63.4615372,28.5040431 C63.4570053,28.5063235 63.4513404,28.5086038 63.4468085,28.5097439 C63.4513404,28.5086038 63.4570053,28.5063235 63.4615372,28.5040431" id="Fill-15" fill="#FEFEFE"></path>
                <path d="M85.3362117,15.8750131 C88.6952782,12.9586556 91.9043681,11.4016173 95.3147964,11.4016173 C98.6245556,11.4016173 100.781754,12.859796 101.48233,15.7246641 C104.843451,12.8083066 108.001179,11.4016173 111.310938,11.4016173 C115.522612,11.4016173 117.829787,13.7124599 117.829787,18.1384855 L117.829787,36.4851752 L113.618114,36.4851752 L113.618114,19.3453961 C113.568806,16.3281195 112.514861,15.0202897 109.807063,15.0202897 C107.298549,15.0202897 105.49472,16.1262812 101.784338,18.8408004 L101.784338,36.4851752 L97.6712792,36.4851752 L97.6712792,19.3453961 C97.6712792,16.175711 96.4180495,15.0202897 93.8602282,15.0202897 C91.4030762,15.0202897 89.5992472,16.0768514 85.8375036,18.7913706 L85.8375036,36.4851752 L81.5744681,36.4851752 L81.5744681,12.0050726 L85.0855657,12.0050726 L85.3362117,15.8750131 Z" id="Fill-17" fill="#FEFEFE"></path>
                <path d="M124.718882,23.9433962 C124.718882,30.9007915 126.48555,32.9583017 131.992021,32.9583017 C137.498492,32.9583017 139.318374,30.9007915 139.318374,23.9433962 C139.318374,16.9860009 137.498492,14.9284908 131.992021,14.9284908 C126.48555,14.9284908 124.718882,16.9860009 124.718882,23.9433962 M143.888298,23.9433962 C143.888298,33.1048366 140.721066,36.4851752 131.992021,36.4851752 C123.31619,36.4851752 120.095745,33.1048366 120.095745,23.9433962 C120.095745,14.8301317 123.31619,11.4016173 131.992021,11.4016173 C140.721066,11.4016173 143.888298,14.8301317 143.888298,23.9433962" id="Fill-19" fill="#FEFEFE"></path>
                <path d="M158.682554,35.4046787 C158.429839,36.0715476 157.872624,36.4851752 157.166266,36.4851752 L153.271975,36.4851752 C152.563546,36.4851752 152.008402,36.0715476 151.755688,35.4046787 L142.755319,11.4016173 L147.358039,11.4016173 L153.42319,28.9639064 C153.930691,30.4073823 154.43612,31.9521546 154.889763,33.3428718 L155.546407,33.3428718 L157.064766,28.9639064 L163.129917,11.4016173 L167.680851,11.4016173 L158.682554,35.4046787 Z" id="Fill-21" fill="#FEFEFE"></path>
                <mask id="mask-10" fill="white">
                    <use xlink:href="#path-9"></use>
                </mask>
                <g id="Clip-24"></g>
                <path d="M167.878593,36.4851752 L172.015024,36.4851752 L172.015024,11.6837802 L167.878593,11.6837802 L167.878593,36.4851752 Z M170.931481,1.14016173 C171.819301,1.14016173 172.212766,1.64929351 172.212766,2.46515633 L172.212766,5.36553821 C172.212766,6.28364471 171.819301,6.69053281 170.931481,6.69053281 L168.962136,6.69053281 C168.124761,6.69053281 167.680851,6.28364471 167.680851,5.36553821 L167.680851,2.46515633 C167.680851,1.64929351 168.124761,1.14016173 168.962136,1.14016173 L170.931481,1.14016173 Z" id="Fill-23" fill="#FEFEFE" mask="url(#mask-10)"></path>
                <path d="M180.506424,15.8750131 C183.865491,12.9586556 187.074581,11.4016173 190.485009,11.4016173 C193.794768,11.4016173 195.951967,12.859796 196.652543,15.7246641 C200.013664,12.8083066 203.171392,11.4016173 206.481151,11.4016173 C210.692825,11.4016173 213,13.7124599 213,18.1384855 L213,36.4851752 L208.788326,36.4851752 L208.788326,19.3453961 C208.739019,16.3281195 207.685073,15.0202897 204.977275,15.0202897 C202.468761,15.0202897 200.664933,16.1262812 196.954551,18.8408004 L196.954551,36.4851752 L192.841492,36.4851752 L192.841492,19.3453961 C192.841492,16.175711 191.588262,15.0202897 189.030441,15.0202897 C186.573289,15.0202897 184.76946,16.0768514 181.007716,18.7913706 L181.007716,36.4851752 L176.744681,36.4851752 L176.744681,12.0050726 L180.255779,12.0050726 L180.506424,15.8750131 Z" id="Fill-25" fill="#FEFEFE" mask="url(#mask-10)"></path>
            </g>
        </g>
    </g>
</svg>