<?xml version="1.0" encoding="UTF-8"?>
<svg width="147px" height="122px" viewBox="0 0 147 122" version="1.1" xmlns="http://www.w3.org/2000/svg" xmlns:xlink="http://www.w3.org/1999/xlink">
    <!-- Generator: Sketch 47.1 (45422) - http://www.bohemiancoding.com/sketch -->
    <title>Icon/car-rect</title>
    <desc>Created with Sketch.</desc>
    <defs>
        <rect id="path-1" x="0" y="0" width="147" height="122" rx="2"></rect>
        <filter x="-18.0%" y="-11.9%" width="129.3%" height="135.2%" filterUnits="objectBoundingBox" id="filter-2">
            <feOffset dx="-5" dy="7" in="SourceAlpha" result="shadowOffsetOuter1"></feOffset>
            <feGaussianBlur stdDeviation="6" in="shadowOffsetOuter1" result="shadowBlurOuter1"></feGaussianBlur>
            <feColorMatrix values="0 0 0 0 0.195773889   0 0 0 0 0.279420064   0 0 0 0 0.697650935  0 0 0 0.268597147 0" type="matrix" in="shadowBlurOuter1"></feColorMatrix>
        </filter>
    </defs>
    <g id="Symbols" stroke="none" stroke-width="1" fill="none" fill-rule="evenodd">
        <g id="Icon/car-rect">
            <g>
                <g id="Rectangle-2">
                    <use fill="black" fill-opacity="1" filter="url(#filter-2)" xlink:href="#path-1"></use>
                    <use fill="#3247B2" fill-rule="evenodd" xlink:href="#path-1"></use>
                </g>
                <g id="Icon/car" transform="translate(44.000000, 37.000000)">
                    <g id="car" stroke-width="1" fill-rule="evenodd" fill="#FFFFFF">
                        <g id="Group-5" transform="translate(8.000000, 30.891500)">
                            <path d="M29.0642,0.9972 L25.6192,0.9972 C25.1132,0.9972 24.7022,1.4072 24.7022,1.9132 C24.7022,2.4202 25.1132,2.8292 25.6192,2.8292 L29.0642,2.8292 C29.5702,2.8292 29.9802,2.4202 29.9802,1.9132 C29.9802,1.4072 29.5702,0.9972 29.0642,0.9972" id="Fill-1"></path>
                            <path d="M3.7928,11.837 C3.1828,11.837 2.6858,11.34 2.6858,10.729 C2.6858,10.118 3.1828,9.621 3.7928,9.621 C4.4038,9.621 4.8998,10.118 4.8998,10.729 C4.8998,11.34 4.4038,11.837 3.7928,11.837 M3.7928,7.789 C2.1718,7.789 0.8538,9.108 0.8538,10.729 C0.8538,12.351 2.1718,13.669 3.7928,13.669 C5.4138,13.669 6.7328,12.351 6.7328,10.729 C6.7328,9.108 5.4138,7.789 3.7928,7.789" id="Fill-3"></path>
                        </g>
                        <g id="Group-16" transform="translate(0.000000, 0.891500)">
                            <path d="M58.0017,41.2784 L57.0267,41.2784 C57.3347,37.8954 54.6827,34.8414 51.2967,34.6704 C51.1927,34.6644 51.0887,34.6614 50.9837,34.6614 C47.6397,34.6614 44.9167,37.3834 44.9167,40.7284 C44.9167,40.9104 44.9257,41.0964 44.9417,41.2784 L37.7047,41.2784 C38.0367,40.9974 38.3497,40.6844 38.6397,40.3394 C41.3637,37.0894 41.3937,31.9304 41.2667,29.7634 L52.4157,29.3314 C52.8687,29.4254 53.3037,29.5624 53.7167,29.7374 C53.6467,30.0624 53.6097,30.3954 53.6097,30.7334 L53.6097,31.7864 C53.6097,34.2754 55.5527,36.3184 58.0017,36.4814 L58.0017,41.2784 Z M55.2107,41.0054 C55.0637,43.1874 53.1937,44.9644 50.9837,44.9644 C48.6987,44.9644 46.7497,43.0144 46.7497,40.7284 C46.7497,38.3934 48.6487,36.4944 50.9837,36.4944 C53.3187,36.4944 55.2197,38.3934 55.2197,40.7284 C55.2197,40.8214 55.2167,40.9134 55.2107,41.0054 L55.2107,41.0054 Z M32.7117,41.2784 L21.1997,41.2784 C19.2427,37.8124 19.9177,32.4644 20.2397,30.5794 L39.4317,29.8354 C39.5397,31.7314 39.5417,36.4164 37.2317,39.1654 C36.1197,40.4904 34.6407,41.1804 32.7117,41.2784 L32.7117,41.2784 Z M17.8357,41.2784 C17.8527,41.0954 17.8597,40.9124 17.8597,40.7284 C17.8597,37.3834 15.1387,34.6614 11.7927,34.6614 C8.4467,34.6614 5.7257,37.3834 5.7257,40.7284 L5.7257,40.7344 C5.7257,40.9104 5.7337,41.0984 5.7507,41.2784 L2.7037,41.2784 C2.4257,41.2784 2.1697,41.1494 2.0047,40.9254 C1.8387,40.7004 1.7917,40.4194 1.8737,40.1524 L2.8067,37.1364 C2.9097,37.1434 3.0147,37.1474 3.1177,37.1474 C5.7137,37.1474 7.8257,35.0364 7.8257,32.4394 L7.8257,31.3874 C7.8257,31.3644 7.8237,31.3404 7.8237,31.3174 C8.3837,31.1444 8.9707,31.0404 9.5727,31.0124 L13.0207,30.8594 L18.3667,30.6514 C18.0227,32.8214 17.5467,37.5764 19.1567,41.2784 L17.8357,41.2784 Z M15.2357,43.1904 C14.8037,43.7944 14.2127,44.2814 13.5367,44.5884 C12.9907,44.8364 12.3927,44.9644 11.7927,44.9644 C10.8747,44.9644 9.9707,44.6594 9.2387,44.1044 C8.4847,43.5324 7.9347,42.7124 7.6967,41.7964 C7.6067,41.4484 7.5577,41.0884 7.5577,40.7284 C7.5577,38.3934 9.4577,36.4944 11.7927,36.4944 C14.1277,36.4944 16.0277,38.3934 16.0277,40.7314 C16.0277,41.6084 15.7467,42.4774 15.2357,43.1904 L15.2357,43.1904 Z M3.4507,35.2124 C3.4897,35.1214 3.5307,35.0304 3.5737,34.9414 C3.5757,34.9404 3.5767,34.9374 3.5777,34.9354 C4.1317,33.8104 4.9727,32.8674 5.9927,32.1864 L5.9927,32.4394 C5.9927,33.9254 4.8597,35.1524 3.4117,35.3004 C3.4247,35.2714 3.4377,35.2414 3.4507,35.2124 L3.4507,35.2124 Z M40.8817,22.5484 L40.8817,22.5484 C43.5587,22.5484 46.0987,23.5664 48.0337,25.4154 L50.2997,27.5794 L41.0687,27.9374 L40.3397,22.5484 L40.8817,22.5484 Z M55.4427,30.7864 C55.4557,30.7974 55.4697,30.8074 55.4807,30.8184 C56.6467,31.7914 57.4757,33.1414 57.8187,34.6184 C56.4707,34.3814 55.4427,33.2014 55.4427,31.7854 L55.4427,30.7864 Z M59.7647,35.1134 C59.5307,33.2804 58.7207,31.5234 57.4587,30.1714 C56.2537,28.8794 54.6637,27.9594 52.9397,27.5684 L49.2997,24.0904 C47.0217,21.9134 44.0317,20.7154 40.8817,20.7154 L33.8197,20.7154 C29.9087,20.7154 25.9887,21.6374 22.4847,23.3804 C22.0317,23.6054 21.8477,24.1554 22.0727,24.6094 C22.2987,25.0624 22.8487,25.2464 23.3017,25.0214 C26.5537,23.4034 30.1897,22.5484 33.8197,22.5484 L38.4907,22.5484 L39.2297,28.0084 L16.5987,28.8864 L20.0347,26.8724 C20.4717,26.6154 20.6167,26.0544 20.3607,25.6174 C20.1057,25.1814 19.5437,25.0354 19.1067,25.2904 L12.7177,29.0384 L9.4907,29.1824 C8.4687,29.2274 7.4817,29.4504 6.5667,29.8224 C6.5427,29.8294 6.5187,29.8384 6.4937,29.8474 C4.6057,30.6304 3.0747,32.0214 2.1147,33.7794 C1.9107,34.1524 1.7347,34.5414 1.5847,34.9384 C1.2847,35.7334 1.0647,36.5654 0.8137,37.3764 C0.6057,38.0484 0.3977,38.7204 0.1897,39.3934 C0.1687,39.4664 0.1457,39.5394 0.1227,39.6114 C-0.1333,40.4394 0.0147,41.3154 0.5287,42.0124 C1.0437,42.7114 1.8367,43.1114 2.7037,43.1114 L6.2137,43.1114 C7.1407,45.2754 9.2927,46.7974 11.7927,46.7974 C14.2937,46.7974 16.4447,45.2754 17.3727,43.1114 L45.4037,43.1114 C46.3317,45.2754 48.4837,46.7974 50.9837,46.7974 C53.4837,46.7974 55.6367,45.2754 56.5647,43.1114 L58.9177,43.1114 C59.4237,43.1114 59.8347,42.7014 59.8347,42.1954 L59.8347,36.2074 C59.8347,35.8414 59.8117,35.4754 59.7647,35.1134 L59.7647,35.1134 Z" id="Fill-8"></path>
                            <path d="M34.8133,4.7169 C34.4563,4.3599 33.8763,4.3599 33.5183,4.7169 L26.9323,11.3039 L26.1343,9.2389 C25.9523,8.7669 25.4213,8.5329 24.9493,8.7149 C24.4773,8.8969 24.2433,9.4279 24.4253,9.8999 L25.7303,13.2769 C25.8413,13.5659 26.0913,13.7789 26.3953,13.8429 C26.4583,13.8559 26.5213,13.8629 26.5843,13.8629 C26.8253,13.8629 27.0583,13.7679 27.2323,13.5949 L34.8143,6.0129 C35.1713,5.6549 35.1713,5.0749 34.8133,4.7169" id="Fill-12"></path>
                            <path d="M29.7224,16.255 C25.8084,16.255 22.6234,13.07 22.6234,9.156 C22.6234,5.241 25.8084,2.057 29.7224,2.057 C33.6374,2.057 36.8224,5.241 36.8224,9.156 C36.8224,13.07 33.6374,16.255 29.7224,16.255 M29.7224,0.225 C24.7974,0.225 20.7904,4.231 20.7904,9.156 C20.7904,14.081 24.7984,18.088 29.7224,18.088 C34.6474,18.088 38.6544,14.081 38.6544,9.156 C38.6544,4.231 34.6474,0.225 29.7224,0.225" id="Fill-14"></path>
                        </g>
                    </g>
                    <rect id="Rectangle" x="0" y="0" width="60" height="48"></rect>
                </g>
            </g>
        </g>
    </g>
</svg>