<?xml version="1.0" encoding="UTF-8"?>
<svg width="147px" height="122px" viewBox="0 0 147 122" version="1.1" xmlns="http://www.w3.org/2000/svg" xmlns:xlink="http://www.w3.org/1999/xlink">
    <!-- Generator: Sketch 47.1 (45422) - http://www.bohemiancoding.com/sketch -->
    <title>Icon/dash-rect</title>
    <desc>Created with Sketch.</desc>
    <defs>
        <rect id="path-1" x="0" y="0" width="147" height="122" rx="2"></rect>
        <filter x="-18.0%" y="-11.9%" width="129.3%" height="135.2%" filterUnits="objectBoundingBox" id="filter-2">
            <feOffset dx="-5" dy="7" in="SourceAlpha" result="shadowOffsetOuter1"></feOffset>
            <feGaussianBlur stdDeviation="6" in="shadowOffsetOuter1" result="shadowBlurOuter1"></feGaussianBlur>
            <feColorMatrix values="0 0 0 0 0.195773889   0 0 0 0 0.279420064   0 0 0 0 0.697650935  0 0 0 0.268597147 0" type="matrix" in="shadowBlurOuter1"></feColorMatrix>
        </filter>
    </defs>
    <g id="Symbols" stroke="none" stroke-width="1" fill="none" fill-rule="evenodd">
        <g id="Icon/dash-rect">
            <g>
                <g id="Rectangle-2">
                    <use fill="black" fill-opacity="1" filter="url(#filter-2)" xlink:href="#path-1"></use>
                    <use fill="#3247B2" fill-rule="evenodd" xlink:href="#path-1"></use>
                </g>
                <g id="Icon/dash" transform="translate(43.000000, 37.000000)">
                    <g id="dash" stroke-width="1" fill-rule="evenodd" transform="translate(0.000000, 5.000000)" fill="#FFFFFF">
                        <path d="M57.2256,31.9965 L55.4286,30.1995 C55.0256,29.7965 54.3716,29.7965 53.9686,30.1995 C53.5656,30.6015 53.5656,31.2565 53.9686,31.6595 L55.7666,33.4565 C54.0446,34.8925 51.8946,35.8275 49.5386,36.0405 L49.5386,34.0255 C49.5386,33.4555 49.0766,32.9935 48.5066,32.9935 C47.9366,32.9935 47.4746,33.4555 47.4746,34.0255 L47.4746,36.0405 C44.9656,35.8185 42.6466,34.7855 40.7966,33.0655 C45.4456,29.9065 48.5066,24.5765 48.5066,18.5445 C48.5066,16.7595 48.2366,15.0365 47.7386,13.4125 C47.9946,13.3955 48.2496,13.3845 48.5066,13.3845 C51.2656,13.3845 53.7976,14.3745 55.7666,16.0175 L53.9686,17.8145 C53.5656,18.2175 53.5656,18.8715 53.9686,19.2745 C54.1706,19.4765 54.4336,19.5765 54.6986,19.5765 C54.9626,19.5765 55.2266,19.4765 55.4286,19.2745 L57.2256,17.4775 C58.6606,19.1985 59.5966,21.3495 59.8096,23.7055 L56.7626,23.7055 C56.1926,23.7055 55.7306,24.1675 55.7306,24.7375 C55.7306,25.3075 56.1926,25.7685 56.7626,25.7685 L59.8096,25.7685 C59.5966,28.1255 58.6616,30.2755 57.2256,31.9965 M31.9936,33.9865 L31.9936,29.8965 C31.9936,29.3275 31.5316,28.8645 30.9616,28.8645 C30.3916,28.8645 29.9296,29.3275 29.9296,29.8965 L29.9296,33.9865 C26.4366,33.7555 23.2586,32.3615 20.7766,30.1885 L23.6636,27.3015 C24.0666,26.8985 24.0666,26.2445 23.6636,25.8425 C23.2606,25.4385 22.6066,25.4395 22.2046,25.8425 L19.3166,28.7285 C17.1436,26.2475 15.7506,23.0685 15.5186,19.5765 L19.6086,19.5765 C20.1786,19.5765 20.6406,19.1145 20.6406,18.5445 C20.6406,17.9745 20.1786,17.5125 19.6086,17.5125 L15.5186,17.5125 C15.7506,14.0195 17.1436,10.8415 19.3166,8.3595 L22.2046,11.2465 C22.4056,11.4485 22.6696,11.5495 22.9336,11.5495 C23.1976,11.5495 23.4616,11.4485 23.6636,11.2465 C24.0666,10.8435 24.0666,10.1905 23.6636,9.7875 L20.7766,6.9005 C23.2586,4.7265 26.4366,3.3325 29.9296,3.1015 L29.9296,7.1915 C29.9296,7.7625 30.3916,8.2245 30.9616,8.2245 C31.5316,8.2245 31.9936,7.7615 31.9936,7.1915 L31.9936,3.1025 C35.4866,3.3325 38.6636,4.7265 41.1456,6.9005 L38.2586,9.7875 C37.8556,10.1895 37.8556,10.8435 38.2596,11.2465 C38.4606,11.4485 38.7246,11.5495 38.9886,11.5495 C39.2526,11.5495 39.5176,11.4485 39.7186,11.2465 L42.6046,8.3595 C44.7786,10.8415 46.1726,14.0195 46.4036,17.5125 L42.3136,17.5125 C41.7446,17.5125 41.2816,17.9745 41.2816,18.5445 C41.2816,19.1145 41.7446,19.5765 42.3136,19.5765 L46.4036,19.5765 C46.1726,23.0685 44.7786,26.2475 42.6046,28.7285 L39.7186,25.8425 C39.3156,25.4395 38.6626,25.4385 38.2586,25.8425 C37.8556,26.2445 37.8556,26.8985 38.2586,27.3015 L41.1456,30.1885 C38.6636,32.3615 35.4866,33.7555 31.9936,33.9865 M14.4486,36.0405 L14.4486,34.0245 C14.4486,33.4555 13.9866,32.9935 13.4166,32.9935 C12.8466,32.9935 12.3846,33.4555 12.3846,34.0245 L12.3846,36.0405 C10.0286,35.8265 7.8776,34.8925 6.1566,33.4565 L7.9546,31.6585 C8.3576,31.2565 8.3576,30.6015 7.9546,30.1995 C7.5516,29.7965 6.8976,29.7965 6.4946,30.1995 L4.6976,31.9965 C3.2616,30.2755 2.3266,28.1245 2.1126,25.7685 L5.1606,25.7685 C5.7296,25.7685 6.1926,25.3075 6.1926,24.7365 C6.1926,24.1665 5.7296,23.7045 5.1606,23.7045 L2.1126,23.7045 C2.3266,21.3485 3.2616,19.1975 4.6976,17.4765 L6.4946,19.2745 C6.6966,19.4755 6.9596,19.5765 7.2246,19.5765 C7.4886,19.5765 7.7526,19.4755 7.9546,19.2745 C8.3566,18.8715 8.3566,18.2175 7.9546,17.8145 L6.1566,16.0175 C8.1256,14.3745 10.6576,13.3845 13.4166,13.3845 C13.6726,13.3845 13.9286,13.3955 14.1836,13.4125 C13.6866,15.0365 13.4166,16.7595 13.4166,18.5445 C13.4166,24.5765 16.4766,29.9065 21.1266,33.0655 C19.2766,34.7855 16.9566,35.8175 14.4486,36.0405 M48.5066,11.3205 C47.9976,11.3205 47.4886,11.3515 46.9836,11.4085 C44.2436,5.2825 38.0956,0.9995 30.9616,0.9995 C23.8276,0.9995 17.6786,5.2825 14.9396,11.4085 C14.4346,11.3515 13.9246,11.3205 13.4166,11.3205 C6.0186,11.3205 -0.0004,17.3395 -0.0004,24.7365 C-0.0004,32.1345 6.0186,38.1535 13.4166,38.1535 C16.9966,38.1535 20.4556,36.6975 22.9666,34.1535 C25.3666,35.3885 28.0826,36.0895 30.9616,36.0895 C33.8406,36.0895 36.5566,35.3885 38.9556,34.1535 C41.4676,36.6975 44.9256,38.1535 48.5066,38.1535 C55.9046,38.1535 61.9226,32.1345 61.9226,24.7365 C61.9226,17.3395 55.9046,11.3205 48.5066,11.3205" id="Fill-1"></path>
                        <path d="M30.9615,22.6732 C29.8235,22.6732 28.8975,21.7462 28.8975,20.6082 C28.8975,19.9072 29.8565,17.7082 30.9615,15.5642 C32.0665,17.7082 33.0255,19.9062 33.0255,20.6082 C33.0255,21.7462 32.0995,22.6732 30.9615,22.6732 M31.8615,12.8792 C31.6785,12.5532 31.3355,12.3522 30.9615,12.3522 C30.5885,12.3522 30.2445,12.5532 30.0615,12.8792 C29.5225,13.8392 26.8335,18.7242 26.8335,20.6082 C26.8335,22.8852 28.6855,24.7362 30.9615,24.7362 C33.2375,24.7362 35.0895,22.8852 35.0895,20.6082 C35.0895,18.7242 32.4005,13.8392 31.8615,12.8792" id="Fill-4"></path>
                    </g>
                    <rect id="Rectangle" x="0" y="0" width="62" height="48"></rect>
                </g>
            </g>
        </g>
    </g>
</svg>