<?xml version="1.0" encoding="UTF-8"?>
<svg width="106px" height="106px" viewBox="0 0 106 106" version="1.1" xmlns="http://www.w3.org/2000/svg" xmlns:xlink="http://www.w3.org/1999/xlink">
    <!-- Generator: Sketch 48.1 (47250) - http://www.bohemiancoding.com/sketch -->
    <title>Icon/energy</title>
    <desc>Created with Sketch.</desc>
    <defs></defs>
    <g id="Symbols" stroke="none" stroke-width="1" fill="none" fill-rule="evenodd">
        <g id="Icon/energy">
            <g id="Icon/oval-law" fill="#384C9B">
                <circle id="Oval-4-Copy-2" cx="53" cy="53" r="53"></circle>
            </g>
            <g id="002-light-bulb" transform="translate(33.000000, 31.000000)" fill="#1BD6F7" fill-rule="nonzero">
                <path d="M21,6.96857143 C14.64,6.96857143 10.0457143,11.7085714 9.31714286,16.8 C8.86285714,20.1942857 9.96,23.5028571 12.24,26.0057143 C14.2457143,28.1485714 15.3428571,31.0114286 15.3428571,33.96 L15.3342857,38.6057143 C15.3342857,40.4828571 16.8857143,42 18.8057143,42 L23.28,42 C25.2,42 26.7514286,40.4828571 26.7514286,38.6057143 L26.76,33.96 C26.76,30.9257143 27.7628571,28.1485714 29.6828571,26.1857143 C31.7828571,24.0428571 32.88,21.2742857 32.88,18.4114286 C32.8714286,12.06 27.48,6.96857143 21,6.96857143 Z M25.0114286,38.6057143 C25.0114286,39.4971429 24.2828571,40.2171429 23.3657143,40.2171429 L18.8914286,40.2171429 C17.9742857,40.2171429 17.2457143,39.5057143 17.2457143,38.6057143 L17.2457143,36.5485714 L25.0028571,36.5485714 L25.0028571,38.6057143 L25.0114286,38.6057143 Z M28.4057143,24.9342857 C26.1257143,27.2571429 24.9342857,30.4714286 24.9342857,33.96 L24.9342857,34.7657143 L17.1771429,34.7657143 L17.1771429,33.96 C17.1771429,30.6514286 15.8057143,27.3514286 13.5257143,24.8485714 C11.52,22.7057143 10.6971429,19.9371429 11.0571429,17.0742857 C11.7,12.7885714 15.6857143,8.76 21.0085714,8.76 C26.58,8.76 31.0542857,13.14 31.0542857,18.4114286 C31.0542857,20.82 30.1371429,23.1428571 28.4057143,24.9342857 Z" id="Shape"></path>
                <rect id="Rectangle-path" x="20.0828571" y="0" width="1.82571429" height="4.28571429"></rect>
                <polygon id="Shape" points="32.0657143 8.26285714 33.3428571 9.54 36.4714286 6.53142857 35.1857143 5.25428571"></polygon>
                <rect id="Rectangle-path" x="37.5257143" y="19.3028571" width="4.47428571" height="1.79142857"></rect>
                <rect id="Rectangle-path" x="0" y="19.3028571" width="4.47428571" height="1.79142857"></rect>
                <polygon id="Shape" points="6.78 5.24571429 5.49428571 6.52285714 8.62285714 9.53142857 9.9 8.25428571"></polygon>
            </g>
        </g>
    </g>
</svg>