<?xml version="1.0" encoding="UTF-8"?>
<svg width="147px" height="122px" viewBox="0 0 147 122" version="1.1" xmlns="http://www.w3.org/2000/svg" xmlns:xlink="http://www.w3.org/1999/xlink">
    <!-- Generator: Sketch 47.1 (45422) - http://www.bohemiancoding.com/sketch -->
    <title>Icon/key-rect</title>
    <desc>Created with Sketch.</desc>
    <defs>
        <rect id="path-1" x="0" y="0" width="147" height="122" rx="2"></rect>
        <filter x="-18.0%" y="-11.9%" width="129.3%" height="135.2%" filterUnits="objectBoundingBox" id="filter-2">
            <feOffset dx="-5" dy="7" in="SourceAlpha" result="shadowOffsetOuter1"></feOffset>
            <feGaussianBlur stdDeviation="6" in="shadowOffsetOuter1" result="shadowBlurOuter1"></feGaussianBlur>
            <feColorMatrix values="0 0 0 0 0.195773889   0 0 0 0 0.279420064   0 0 0 0 0.697650935  0 0 0 0.268597147 0" type="matrix" in="shadowBlurOuter1"></feColorMatrix>
        </filter>
    </defs>
    <g id="Symbols" stroke="none" stroke-width="1" fill="none" fill-rule="evenodd">
        <g id="Icon/key-rect">
            <g id="Icon/rent-rect">
                <g id="Rectangle-2">
                    <use fill="black" fill-opacity="1" filter="url(#filter-2)" xlink:href="#path-1"></use>
                    <use fill="#3247B2" fill-rule="evenodd" xlink:href="#path-1"></use>
                </g>
                <g id="Icon/key" transform="translate(43.000000, 37.000000)">
                    <g id="key" stroke-width="1" fill-rule="evenodd" transform="translate(2.000000, 11.000000)" fill="#FFFFFF">
                        <path d="M7.2614,25.5164 C7.2614,25.0534 6.8864,24.6784 6.4244,24.6784 L5.8854,24.6784 C3.6374,24.6784 1.8084,22.8504 1.8084,20.6034 L1.8084,5.8624 C1.8084,3.6154 3.6374,1.7874 5.8854,1.7874 L20.6394,1.7874 C21.1014,1.7874 21.4764,1.4114 21.4764,0.9494 C21.4764,0.4864 21.1014,0.1114 20.6394,0.1114 L5.8854,0.1114 C2.7144,0.1114 0.1344,2.6914 0.1344,5.8624 L0.1344,20.6034 C0.1344,23.7734 2.7144,26.3534 5.8854,26.3534 L6.4244,26.3534 C6.8864,26.3534 7.2614,25.9784 7.2614,25.5164 M5.8854,21.3289 C5.4854,21.3289 5.1584,21.0039 5.1584,20.6029 L5.1584,5.8629 C5.1584,5.4619 5.4854,5.1369 5.8854,5.1369 L8.3324,5.1369 L8.3324,21.3289 L5.8854,21.3289 Z M10.0084,22.1659 L10.0084,4.2999 C10.0084,3.8359 9.6324,3.4619 9.1704,3.4619 L5.8854,3.4619 C4.5614,3.4619 3.4834,4.5389 3.4834,5.8629 L3.4834,20.6029 C3.4834,21.9269 4.5614,23.0039 5.8854,23.0039 L9.1704,23.0039 C9.6324,23.0039 10.0084,22.6289 10.0084,22.1659 L10.0084,22.1659 Z" id="Fill-3"></path>
                        <path d="M30.8424,20.6033 L30.8424,17.3843 L31.1034,17.3843 C31.5664,17.3843 31.9404,17.0093 31.9404,16.5463 C31.9404,16.0843 31.5664,15.7093 31.1034,15.7093 L30.8424,15.7093 L30.8424,10.6843 L35.7364,10.6843 C35.8654,11.3213 36.4294,11.8003 37.1034,11.8003 L39.8514,11.8003 C40.5254,11.8003 41.0884,11.3213 41.2184,10.6843 L44.2144,10.6843 C44.3444,11.3213 44.9084,11.8003 45.5824,11.8003 L47.9864,11.8003 C48.6604,11.8003 49.2244,11.3213 49.3544,10.6843 L51.1664,10.6843 L51.1664,10.9633 C51.1664,11.7333 51.7924,12.3593 52.5624,12.3593 L54.7954,12.3593 C55.2574,12.3593 55.6334,12.7353 55.6334,13.1973 C55.6334,13.6593 55.2574,14.0343 54.7954,14.0343 L52.5624,14.0343 C51.7924,14.0343 51.1664,14.6613 51.1664,15.4303 L51.1664,15.7093 L49.3544,15.7093 C49.2244,15.0733 48.6604,14.5923 47.9864,14.5923 L45.5824,14.5923 C44.9084,14.5923 44.3444,15.0733 44.2144,15.7093 L41.2184,15.7093 C41.0884,15.0733 40.5254,14.5923 39.8514,14.5923 L37.1034,14.5923 C36.4294,14.5923 35.8654,15.0733 35.7364,15.7093 L34.6394,15.7093 C34.1764,15.7093 33.8024,16.0843 33.8024,16.5463 C33.8024,17.0093 34.1764,17.3843 34.6394,17.3843 L35.9874,17.3843 C36.6604,17.3843 37.2254,16.9043 37.3554,16.2673 L39.6004,16.2673 C39.7294,16.9043 40.2934,17.3843 40.9674,17.3843 L44.4664,17.3843 C45.1404,17.3843 45.7044,16.9043 45.8344,16.2673 L47.7354,16.2673 C47.8634,16.9043 48.4284,17.3843 49.1024,17.3843 L51.4454,17.3843 C52.2154,17.3843 52.8414,16.7583 52.8414,15.9883 L52.8414,15.7093 L54.7954,15.7093 C56.1814,15.7093 57.3084,14.5823 57.3084,13.1973 C57.3084,11.8123 56.1814,10.6843 54.7954,10.6843 L52.8414,10.6843 L52.8414,10.4053 C52.8414,9.6353 52.2154,9.0093 51.4454,9.0093 L49.1024,9.0093 C48.4284,9.0093 47.8644,9.4893 47.7354,10.1253 L45.8344,10.1253 C45.7044,9.4893 45.1404,9.0093 44.4664,9.0093 L40.9674,9.0093 C40.2934,9.0093 39.7294,9.4893 39.6004,10.1253 L37.3554,10.1253 C37.2254,9.4893 36.6614,9.0093 35.9874,9.0093 L30.8424,9.0093 L30.8424,5.8623 C30.8424,2.6913 28.2624,0.1113 25.0914,0.1113 L24.1424,0.1113 C23.6794,0.1113 23.3044,0.4863 23.3044,0.9493 C23.3044,1.4113 23.6794,1.7873 24.1424,1.7873 L25.0914,1.7873 C27.3394,1.7873 29.1674,3.6153 29.1674,5.8623 L29.1674,20.6033 C29.1674,22.8503 27.3394,24.6783 25.0914,24.6783 L10.3704,24.6783 C9.9074,24.6783 9.5334,25.0533 9.5334,25.5163 C9.5334,25.9783 9.9074,26.3533 10.3704,26.3533 L25.0914,26.3533 C28.2624,26.3533 30.8424,23.7733 30.8424,20.6033" id="Fill-6"></path>
                        <path d="M15.5812,21.3289 L25.0912,21.3289 C25.4922,21.3289 25.8172,21.0039 25.8172,20.6029 L25.8172,5.8629 C25.8172,5.4619 25.4922,5.1369 25.0912,5.1369 L15.5812,5.1369 C15.1812,5.1369 14.8552,5.4619 14.8552,5.8629 L14.8552,20.6029 C14.8552,21.0039 15.1812,21.3289 15.5812,21.3289 Z M27.4922,20.6029 C27.4922,21.9269 26.4152,23.0039 25.0912,23.0039 L15.5812,23.0039 C14.2572,23.0039 13.1812,21.9269 13.1812,20.6029 L13.1812,5.8629 C13.1812,4.5389 14.2572,3.4619 15.5812,3.4619 L25.0912,3.4619 C26.4152,3.4619 27.4922,4.5389 27.4922,5.8629 L27.4922,20.6029 Z" id="Fill-10"></path>
                        <path d="M18.127,15.1868 L19.802,15.1868 L19.802,11.2788 L18.127,11.2788 L18.127,15.1868 Z M21.709,12.3958 C22.171,12.3958 22.547,12.7708 22.547,13.2328 C22.547,13.6938 22.171,14.0698 21.709,14.0698 L21.477,14.0698 L21.477,12.3958 L21.709,12.3958 Z M21.477,16.0238 L21.477,15.7448 L21.709,15.7448 C23.094,15.7448 24.221,14.6178 24.221,13.2328 C24.221,11.8478 23.094,10.7208 21.709,10.7208 L21.477,10.7208 L21.477,10.4408 C21.477,9.9788 21.102,9.6038 20.639,9.6038 L17.289,9.6038 C16.826,9.6038 16.452,9.9788 16.452,10.4408 L16.452,16.0238 C16.452,16.4868 16.826,16.8618 17.289,16.8618 L20.639,16.8618 C21.102,16.8618 21.477,16.4868 21.477,16.0238 L21.477,16.0238 Z" id="Fill-12"></path>
                    </g>
                    <rect id="Rectangle" x="0" y="0" width="62" height="48"></rect>
                </g>
            </g>
        </g>
    </g>
</svg>