<?xml version="1.0" encoding="UTF-8"?>
<svg width="106px" height="106px" viewBox="0 0 106 106" version="1.1" xmlns="http://www.w3.org/2000/svg" xmlns:xlink="http://www.w3.org/1999/xlink">
    <!-- Generator: Sketch 47.1 (45422) - http://www.bohemiancoding.com/sketch -->
    <title>Icon/oval-law</title>
    <desc>Created with Sketch.</desc>
    <defs>
        <circle id="path-1" cx="53" cy="53" r="53"></circle>
        <filter x="-25.0%" y="-13.7%" width="140.6%" height="140.6%" filterUnits="objectBoundingBox" id="filter-2">
            <feOffset dx="-5" dy="7" in="SourceAlpha" result="shadowOffsetOuter1"></feOffset>
            <feGaussianBlur stdDeviation="6" in="shadowOffsetOuter1" result="shadowBlurOuter1"></feGaussianBlur>
            <feColorMatrix values="0 0 0 0 0.195773889   0 0 0 0 0.279420064   0 0 0 0 0.697650935  0 0 0 0.268597147 0" type="matrix" in="shadowBlurOuter1"></feColorMatrix>
        </filter>
    </defs>
    <g id="Symbols" stroke="none" stroke-width="1" fill="none" fill-rule="evenodd">
        <g id="Icon/oval-law">
            <g>
                <g id="Oval-4-Copy-2">
                    <use fill="black" fill-opacity="1" filter="url(#filter-2)" xlink:href="#path-1"></use>
                    <use fill="#384C9B" fill-rule="evenodd" xlink:href="#path-1"></use>
                </g>
                <g id="Group" transform="translate(32.000000, 30.000000)" stroke="#19E0FF">
                    <g id="Law">
                        <path d="M39.057721,34.7024616 L38.2688502,35.4923045 C37.6384341,36.1217485 36.6118814,36.1217485 35.9814652,35.4923045 L20.5394294,20.0502686 C20.8898766,19.5355341 21.2850411,19.0485048 21.7307555,18.6027904 C22.3266616,18.0063983 22.9949901,17.494094 23.7138687,17.0712243 L39.057721,32.4155627 C39.3634509,32.7208066 39.5316267,33.1271503 39.5316267,33.5587691 C39.5316267,33.9908739 39.3634509,34.3972177 39.057721,34.7024616 L39.057721,34.7024616 Z M13.0162367,17.2622448 C14.7820824,16.7922275 16.394334,15.8711492 17.6969671,14.5690021 C19.2790832,12.9859139 20.3017474,10.9240595 20.6259476,8.72173449 L27.2343807,15.3296815 C25.0310836,15.6543677 22.9692291,16.677032 21.3871131,18.259148 C20.084966,19.5617812 19.1634016,21.1740328 18.6938704,22.9403645 L13.0162367,17.2622448 Z M20.5890072,26.1925729 C20.5890072,26.6241917 20.4203454,27.0305354 20.1146154,27.3362654 L17.4840741,29.9668067 C16.8735863,30.5777806 15.808149,30.5777806 15.1966891,29.9668067 L5.98882238,20.75894 C5.68309243,20.45321 5.51491665,20.0468662 5.51491665,19.6147614 C5.51491665,19.1831427 5.68309243,18.7767989 5.98882238,18.4710689 L8.61936371,15.8405276 C8.92509366,15.5347976 9.33143744,15.3666219 9.76305619,15.3666219 C10.195161,15.3666219 10.6015048,15.5347976 10.9072347,15.8405276 L20.1146154,25.0488804 C20.4203454,25.3541243 20.5890072,25.7604681 20.5890072,26.1925729 L20.5890072,26.1925729 Z M19.1959674,5.9341967 C19.1959674,5.50209189 19.3636571,5.0957481 19.6693871,4.79050421 L22.3004145,2.15947683 C22.6056584,1.85423293 23.0120021,1.68605716 23.444107,1.68605716 C23.8762118,1.68605716 24.2825556,1.85423293 24.5877994,2.15947683 L33.7961523,11.3678296 C34.1018822,11.6735596 34.2695719,12.0794173 34.2695719,12.5115221 C34.2695719,12.9436269 34.1018822,13.3494847 33.7961523,13.6552146 L31.1651249,16.2857559 C30.5546371,16.8967298 29.4887138,16.8967298 28.8777399,16.2857559 L19.6693871,7.07788919 C19.3636571,6.77215924 19.1959674,6.36630151 19.1959674,5.9341967 L19.1959674,5.9341967 Z M39.4013634,32.0719203 L24.1610413,16.830626 C25.2478651,16.2633973 26.4338445,15.8939939 27.6635691,15.75887 L28.5340975,16.6293984 C28.9312062,17.0269931 29.4595503,17.2457188 30.0214324,17.2457188 C30.5833145,17.2457188 31.1111725,17.0269931 31.5087673,16.6293984 L34.1397947,13.998857 C34.5369034,13.6012623 34.7556291,13.0734042 34.7556291,12.5115221 C34.7556291,11.9496401 34.5369034,11.4212959 34.1397947,11.0241872 L24.9319279,1.81583442 C24.5343332,1.41872572 24.005989,1.2 23.444107,1.2 C22.8822249,1.2 22.3543668,1.41872572 21.9567721,1.81583442 L19.3257447,4.4468618 C18.928636,4.8439705 18.7099103,5.37231463 18.7099103,5.9341967 C18.7099103,6.49607877 18.928636,7.0244229 19.3257447,7.4215316 L20.196273,8.29205996 C19.9513002,10.5264647 18.9471062,12.6301201 17.3533247,14.2253597 C16.0438868,15.5338255 14.4078184,16.4417803 12.6176699,16.8631918 L11.2508771,15.4968852 C10.8537685,15.0992904 10.3254243,14.8805647 9.76305619,14.8805647 C9.20117412,14.8805647 8.67282999,15.0997765 8.2757213,15.4968852 L5.64517997,18.1274265 C5.24758522,18.5250213 5.0288595,19.0528793 5.0288595,19.6147614 C5.0288595,20.1771295 5.24758522,20.7049876 5.64517997,21.1025824 L14.8530467,30.3104491 C15.2506415,30.7080439 15.7784996,30.9267696 16.3408677,30.9267696 C16.9027498,30.9267696 17.4306078,30.7080439 17.8277165,30.3104491 L20.4582579,27.6799078 C20.8563387,27.282313 21.0750644,26.7539689 21.0750644,26.1925729 C21.0750644,25.6302048 20.8563387,25.1023467 20.4582579,24.705238 L19.0924372,23.3389313 C19.3320634,22.3206416 19.7311163,21.354846 20.2711258,20.4682778 L35.6378228,35.8359469 C36.0480551,36.2456931 36.5866064,36.4503231 37.1246717,36.4503231 C37.6637091,36.4503231 38.2022604,36.2456931 38.6124926,35.8359469 L39.4013634,35.046104 C39.7984721,34.6489953 40.0176839,34.1206512 40.0176839,33.5587691 C40.0176839,32.996887 39.7984721,32.469029 39.4013634,32.0719203 L39.4013634,32.0719203 Z M0.610794371,40.8 L26.8578808,40.8 L26.8578808,40.3139428 L0.610794371,40.3139428 L0.610794371,40.8 Z M22.4833664,35.9394284 L4.49925162,35.9394284 L4.49925162,36.4254856 L22.4833664,36.4254856 L22.4833664,35.9394284 Z"></path>
                    </g>
                </g>
            </g>
        </g>
    </g>
</svg>