<?xml version="1.0" encoding="UTF-8"?>
<svg width="106px" height="106px" viewBox="0 0 106 106" version="1.1" xmlns="http://www.w3.org/2000/svg" xmlns:xlink="http://www.w3.org/1999/xlink">
    <!-- Generator: Sketch 47.1 (45422) - http://www.bohemiancoding.com/sketch -->
    <title>Icon/oval-map</title>
    <desc>Created with Sketch.</desc>
    <defs>
        <circle id="path-1" cx="53" cy="53" r="53"></circle>
        <filter x="-25.0%" y="-13.7%" width="140.6%" height="140.6%" filterUnits="objectBoundingBox" id="filter-2">
            <feOffset dx="-5" dy="7" in="SourceAlpha" result="shadowOffsetOuter1"></feOffset>
            <feGaussianBlur stdDeviation="6" in="shadowOffsetOuter1" result="shadowBlurOuter1"></feGaussianBlur>
            <feColorMatrix values="0 0 0 0 0.195773889   0 0 0 0 0.279420064   0 0 0 0 0.697650935  0 0 0 0.268597147 0" type="matrix" in="shadowBlurOuter1"></feColorMatrix>
        </filter>
    </defs>
    <g id="Symbols" stroke="none" stroke-width="1" fill="none" fill-rule="evenodd">
        <g id="Icon/oval-map">
            <g>
                <g id="Oval-4">
                    <use fill="black" fill-opacity="1" filter="url(#filter-2)" xlink:href="#path-1"></use>
                    <use fill="#384C9B" fill-rule="evenodd" xlink:href="#path-1"></use>
                </g>
                <g id="Map" transform="translate(32.000000, 30.000000)" stroke="#19E0FF">
                    <path d="M20.3845361,0.941016956 C14.9842127,0.941016956 10.5909168,5.33358645 10.5909168,10.733017 C10.5909168,15.712461 18.9528417,33.1365966 20.3845361,36.083878 C21.8162304,33.1365966 30.1781553,15.712461 30.1781553,10.733017 C30.1781553,5.33358645 25.7848595,0.941016956 20.3845361,0.941016956 L20.3845361,0.941016956 Z M20.3845361,37.1308475 L20.1779663,36.711322 C19.7675934,35.8787254 10.1298236,16.2583051 10.1298236,10.733017 C10.1298236,5.07956611 14.7296893,0.480000007 20.3845361,0.480000007 C26.0393829,0.480000007 30.6392485,5.07956611 30.6392485,10.733017 C30.6392485,16.2583051 21.0014788,35.8787254 20.5911058,36.711322 L20.3845361,37.1308475 Z M20.4299999,41.28 C11.8536666,41.28 5.136,39.2252475 5.136,36.602061 C5.13553891,34.5768136 9.12353387,32.8438509 15.2961883,32.1869017 L15.3450642,32.6456136 C9.60491515,33.256461 5.59663209,34.8829288 5.59709319,36.602061 C5.59709319,38.6388339 11.5576448,40.8189831 20.4299999,40.8189831 C29.3023549,40.8189831 35.2629065,38.6388339 35.2629065,36.602061 C35.2629065,34.8128542 31.0439039,33.1642576 25.002661,32.5939797 L25.0460037,32.1348068 C31.5326627,32.7474983 35.7239997,34.5012068 35.7239997,36.602061 C35.7239997,39.2252475 29.0063331,41.28 20.4299999,41.28 M20.5178381,4.5517017 C17.0504174,4.5517017 14.2294493,7.3722034 14.2294493,10.8395119 C14.2294493,14.3058983 17.0504174,17.125939 20.5178381,17.125939 C23.9852589,17.125939 26.806227,14.3058983 26.806227,10.8395119 C26.806227,7.3722034 23.9852589,4.5517017 20.5178381,4.5517017 M20.5178381,17.5869559 C16.796355,17.5869559 13.7683561,14.5599187 13.7683561,10.8395119 C13.7683561,7.11772204 16.796355,4.09068475 20.5178381,4.09068475 C24.2393212,4.09068475 27.2673202,7.11772204 27.2673202,10.8395119 C27.2673202,14.5599187 24.2393212,17.5869559 20.5178381,17.5869559"></path>
                </g>
            </g>
        </g>
    </g>
</svg>