<?xml version="1.0" encoding="UTF-8"?>
<svg width="106px" height="106px" viewBox="0 0 106 106" version="1.1" xmlns="http://www.w3.org/2000/svg" xmlns:xlink="http://www.w3.org/1999/xlink">
    <!-- Generator: Sketch 48.1 (47250) - http://www.bohemiancoding.com/sketch -->
    <title>Icon/tech</title>
    <desc>Created with Sketch.</desc>
    <defs></defs>
    <g id="Symbols" stroke="none" stroke-width="1" fill="none" fill-rule="evenodd">
        <g id="Icon/tech">
            <g id="Icon/oval-map">
                <circle id="Oval-4" fill="#384C9B" cx="53" cy="53" r="53"></circle>
                <g id="001-circuit" transform="translate(32.000000, 35.000000)" fill="#19E0FF" fill-rule="nonzero">
                    <path d="M37.5,20.25 C35.2745625,20.25 33.4265625,21.87525 33.0676875,24 L30,24 C27.518625,24 25.5,26.0175 25.5,28.497375 L25.5,36.75 L27,36.75 L27,28.497375 C27,26.84475 28.345875,25.5 30,25.5 L33.0676875,25.5 C33.426375,27.62475 35.2745625,29.25 37.5,29.25 C39.981375,29.25 42,27.231375 42,24.75 C42,22.268625 39.981375,20.25 37.5,20.25 Z M37.5,27.75 C35.845875,27.75 34.5,26.404125 34.5,24.75 C34.5,23.095875 35.845875,21.75 37.5,21.75 C39.154125,21.75 40.5,23.095875 40.5,24.75 C40.5,26.404125 39.154125,27.75 37.5,27.75 Z" id="Shape"></path>
                    <path d="M17.25,9 L14.25,9 C14.25,6.518625 12.231375,4.5 9.75,4.5 C7.268625,4.5 5.25,6.518625 5.25,9 C5.25,11.481375 7.268625,13.5 9.75,13.5 C11.704875,13.5 13.3678125,12.2450625 13.9875,10.5 L17.25,10.5 C18.904125,10.5 20.25,11.84775 20.25,13.5045 L20.25,36.75 L21.75,36.75 L21.75,13.5045 C21.75,11.0206875 19.731375,9 17.25,9 Z M9.75,12 C8.095875,12 6.75,10.654125 6.75,9 C6.75,7.345875 8.095875,6 9.75,6 C11.404125,6 12.75,7.345875 12.75,9 C12.75,10.654125 11.404125,12 9.75,12 Z" id="Shape"></path>
                    <path d="M12,20.25 L8.9323125,20.25 C8.5734375,18.12525 6.7254375,16.5 4.5,16.5 C2.018625,16.5 0,18.518625 0,21 C0,23.481375 2.018625,25.5 4.5,25.5 C6.7254375,25.5 8.5734375,23.87475 8.9323125,21.75 L12,21.75 C13.654125,21.75 15,23.097 15,24.752625 L15,36.75 L16.5,36.75 L16.5,24.752625 C16.5,22.270125 14.481375,20.25 12,20.25 Z M4.5,24 C2.845875,24 1.5,22.654125 1.5,21 C1.5,19.345875 2.845875,18 4.5,18 C6.154125,18 7.5,19.345875 7.5,21 C7.5,22.654125 6.154125,24 4.5,24 Z" id="Shape"></path>
                    <path d="M30.6489375,15 L33.0676875,15 C33.426375,17.12475 35.2745625,18.75 37.5,18.75 C39.981375,18.75 42,16.731375 42,14.25 C42,11.768625 39.981375,9.75 37.5,9.75 C35.2745625,9.75 33.4265625,11.37525 33.0676875,13.5 L30.6489375,13.5 C29.46825,13.5 28.5076875,12.5390625 28.5076875,11.357625 L28.5076875,0 L27.0076875,0 L27.0076875,11.357625 C27.0076875,13.3659375 28.641,15 30.6489375,15 Z M37.5,11.25 C39.154125,11.25 40.5,12.595875 40.5,14.25 C40.5,15.904125 39.154125,17.25 37.5,17.25 C35.845875,17.25 34.5,15.904125 34.5,14.25 C34.5,12.595875 35.845875,11.25 37.5,11.25 Z" id="Shape"></path>
                </g>
            </g>
        </g>
    </g>
</svg>