<?xml version="1.0" encoding="UTF-8"?>
<svg width="106px" height="106px" viewBox="0 0 106 106" version="1.1" xmlns="http://www.w3.org/2000/svg" xmlns:xlink="http://www.w3.org/1999/xlink">
    <!-- Generator: Sketch 47.1 (45422) - http://www.bohemiancoding.com/sketch -->
    <title>Icon/oval-user</title>
    <desc>Created with Sketch.</desc>
    <defs>
        <circle id="path-1" cx="53" cy="53" r="53"></circle>
        <filter x="-25.0%" y="-13.7%" width="140.6%" height="140.6%" filterUnits="objectBoundingBox" id="filter-2">
            <feOffset dx="-5" dy="7" in="SourceAlpha" result="shadowOffsetOuter1"></feOffset>
            <feGaussianBlur stdDeviation="6" in="shadowOffsetOuter1" result="shadowBlurOuter1"></feGaussianBlur>
            <feColorMatrix values="0 0 0 0 0.195773889   0 0 0 0 0.279420064   0 0 0 0 0.697650935  0 0 0 0.268597147 0" type="matrix" in="shadowBlurOuter1"></feColorMatrix>
        </filter>
    </defs>
    <g id="Symbols" stroke="none" stroke-width="1" fill="none" fill-rule="evenodd">
        <g id="Icon/oval-user">
            <g>
                <g id="Oval-4-Copy">
                    <use fill="black" fill-opacity="1" filter="url(#filter-2)" xlink:href="#path-1"></use>
                    <use fill="#55619D" fill-rule="evenodd" xlink:href="#path-1"></use>
                </g>
                <g id="User" transform="translate(32.000000, 33.000000)" stroke="#19E0FF">
                    <path d="M12.6309651,11.360651 C12.9756423,10.6131411 13.4806016,10.4051054 13.4999868,10.3970677 L13.6470302,10.3417491 L13.6527039,10.1843039 C13.6536495,10.1502617 13.7751612,6.76589967 14.6276346,5.15693292 C15.4498483,3.60328475 18.9883459,3.01652961 19.0238065,3.0103831 L19.3065459,2.9649935 L18.8838552,1.80330343 C20.2942425,2.06713048 25.021853,3.04726215 26.568409,4.59570943 L26.8312905,4.85764525 C28.3575158,6.58055881 28.2894314,10.1327678 28.2884858,10.1705925 L28.2875401,10.3204727 L28.4199265,10.3880843 C28.4237089,10.3899755 28.8341066,10.6074674 29.1816207,11.360651 C29.3471036,11.7204582 29.2355208,11.9762475 29.0071544,12.4343988 C28.8331609,12.7823857 28.6170875,13.2154781 28.5622418,13.8050701 C28.4676801,14.8334282 27.4345939,14.9677058 27.3906227,14.9733795 L27.2360144,14.9913462 L27.1910976,15.1393352 C27.1717125,15.2036371 25.1863903,21.5813487 20.9897435,21.5813487 C16.7888415,21.5813487 14.6351996,15.1984363 14.6139232,15.1341343 L14.5661696,14.9908734 L14.4162893,14.9733795 C14.372791,14.9677058 13.3406504,14.8334282 13.2460887,13.8050701 C13.1917157,13.2164237 12.976588,12.7838041 12.8035401,12.4358172 C12.5761193,11.9771931 12.4645365,11.720931 12.6309651,11.360651 M12.7751716,13.8485685 C12.8697333,14.8764538 13.6848548,15.3052909 14.2120361,15.4182921 C14.5609687,16.4022063 16.7519625,22.0541571 20.9897435,22.0541571 C25.2251606,22.0541571 27.2705294,16.4144993 27.5986584,15.4173465 C28.1258397,15.3033997 28.93907,14.8740897 29.0331589,13.8485685 C29.0794941,13.3473916 29.2657806,12.9748187 29.4298451,12.6457441 C29.6615211,12.1828647 29.8794858,11.745517 29.6109307,11.1625443 C29.3064421,10.5020311 28.9532543,10.1819399 28.7627125,10.0462439 C28.7631853,9.30346198 28.6667324,5.83399445 26.8927556,4.24961373 L26.8714792,4.2307014 C26.7967755,4.15788892 26.7154524,4.08602205 26.6289285,4.01557361 L26.4989062,3.90068119 L26.4989062,3.91391982 C24.2393552,2.21275544 18.8048962,1.30543626 18.5595087,1.26477474 L18.1609313,1.2 L18.6692003,2.59525738 C17.7689732,2.77397893 15.0035173,3.43638341 14.2096721,4.93565862 C13.3988058,6.466612 13.2177202,9.34932439 13.186042,10.0278043 C12.9581484,10.1573538 12.5155998,10.4821732 12.2016551,11.1625443 C11.9326272,11.745517 12.150119,12.1828647 12.3803766,12.6462169 C12.5434955,12.9752915 12.7288364,13.3478644 12.7751716,13.8485685 M35.8752155,26.1282992 C32.3230065,25.142021 26.8965853,23.6616581 26.8965853,23.6616581 L26.6597083,23.5973562 L23.5850358,36.7348085 L21.9481733,29.3263747 L23.5108048,24.3562135 L20.8252535,24.2493589 L20.8252535,24.2455764 L20.8252535,24.2474676 L20.8252535,24.2455764 L20.8252535,24.2493589 L18.073509,24.3562135 L19.5983159,29.3263747 L17.9472692,36.7348085 L14.8650317,23.5973562 L14.6253179,23.6616581 C14.6253179,23.6616581 9.19653263,25.142021 5.64479644,26.1282992 C1.96209235,27.1514564 1.9190668,29.3225922 1.92001241,29.4379575 L2.80747365,38.5139862 L3.27791794,38.4681238 L2.39092951,29.4147899 C2.39092951,29.3958775 2.42969979,27.5117363 5.76914504,26.5840864 C8.87975104,25.7197928 13.42864,24.4772525 14.5094798,24.1822201 L17.9458508,38.8662284 L20.0451198,29.3670362 L20.0583584,29.3055711 L18.6517536,24.8044358 L20.7585876,24.720276 L22.8658943,24.8044358 L21.4597623,29.3055711 L23.5722699,38.8662284 L27.0086409,24.1822201 C28.0890079,24.4772525 32.6378969,25.7197928 35.7485029,26.5840864 C39.060998,27.5041714 39.1262456,29.3386677 39.1281368,29.3916223 L38.2402028,38.4681238 L38.7111199,38.5139862 L39.5999995,29.4147899 C39.5999995,29.3225922 39.5574468,27.1514564 35.8752155,26.1282992 M27.9171894,34.1177671 L34.0636977,34.1177671 L34.0636977,33.6449587 L27.9171894,33.6449587 L27.9171894,34.1177671 Z"></path>
                </g>
            </g>
        </g>
    </g>
</svg>