<?xml version="1.0" encoding="UTF-8"?>
<svg width="106px" height="106px" viewBox="0 0 106 106" version="1.1" xmlns="http://www.w3.org/2000/svg" xmlns:xlink="http://www.w3.org/1999/xlink">
    <!-- Generator: Sketch 48.1 (47250) - http://www.bohemiancoding.com/sketch -->
    <title>Icon/oval-user Copy</title>
    <desc>Created with Sketch.</desc>
    <defs></defs>
    <g id="Symbols" stroke="none" stroke-width="1" fill="none" fill-rule="evenodd">
        <g id="Icon/oval-user-Copy">
            <g id="Icon/rent" fill="#55619D">
                <circle id="Oval-4-Copy" cx="53" cy="53" r="53"></circle>
            </g>
            <g id="003-car" transform="translate(28.000000, 42.000000)" fill="#1DCDF1" fill-rule="nonzero">
                <path d="M35.4566571,20.5588286 L18.8000571,20.5588286 C18.3978857,20.5588286 18.0714857,20.2324286 18.0714857,19.8302571 C18.0714857,19.4280857 18.3978857,19.1016857 18.8000571,19.1016857 L35.4566571,19.1016857 C35.8588286,19.1016857 36.1852286,19.4280857 36.1852286,19.8302571 C36.1852286,20.2324286 35.8588286,20.5588286 35.4566571,20.5588286 Z" id="Shape"></path>
                <path d="M14.8380857,24.5222571 C12.2502,24.5222571 10.1446286,22.4181429 10.1446286,19.8288 C10.1446286,17.2394571 12.2487429,15.1353429 14.8380857,15.1353429 C17.4245143,15.1353429 19.5300857,17.2394571 19.5300857,19.8288 C19.5300857,22.4181429 17.4245143,24.5222571 14.8380857,24.5222571 Z M14.8380857,16.5939429 C13.0530857,16.5939429 11.6017714,18.0452571 11.6017714,19.8302571 C11.6017714,21.6152571 13.0530857,23.0665714 14.8380857,23.0665714 C16.6216286,23.0665714 18.0729429,21.6152571 18.0729429,19.8302571 C18.0729429,18.0452571 16.6201714,16.5939429 14.8380857,16.5939429 Z" id="Shape"></path>
                <path d="M39.4215429,24.5222571 C36.8336571,24.5222571 34.7280857,22.4181429 34.7280857,19.8288 C34.7280857,17.2394571 36.8322,15.1353429 39.4215429,15.1353429 C42.0108857,15.1353429 44.115,17.2394571 44.115,19.8288 C44.115,22.4181429 42.0094286,24.5222571 39.4215429,24.5222571 Z M39.4215429,16.5939429 C37.6365429,16.5939429 36.1852286,18.0452571 36.1852286,19.8302571 C36.1852286,21.6152571 37.6365429,23.0665714 39.4215429,23.0665714 C41.2065429,23.0665714 42.6578571,21.6152571 42.6578571,19.8302571 C42.6578571,18.0452571 41.2050857,16.5939429 39.4215429,16.5939429 Z" id="Shape"></path>
                <path d="M35.4624857,20.5588286 L18.8029714,20.5588286 C18.4008,20.5588286 18.0744,20.2324286 18.0744,19.8302571 C18.0744,19.4280857 18.4008,19.1016857 18.8029714,19.1016857 L35.4624857,19.1016857 C35.8646571,19.1016857 36.1910571,19.4280857 36.1910571,19.8302571 C36.1910571,20.2324286 35.8646571,20.5588286 35.4624857,20.5588286 Z" id="Shape"></path>
                <path d="M46.8835714,20.5588286 L43.3820571,20.5588286 C42.9798857,20.5588286 42.6534857,20.2324286 42.6534857,19.8302571 C42.6534857,19.4280857 42.9798857,19.1016857 43.3820571,19.1016857 L46.8835714,19.1016857 C47.7855429,19.1016857 48.5418,18.4547143 48.6802286,17.5629429 L49.4568857,12.5897143 C49.5108,12.2414571 49.4248286,11.8946571 49.2106286,11.6134286 C48.9978857,11.3336571 48.6904286,11.1558857 48.3392571,11.1121714 L38.6332286,9.92897143 C38.4933429,9.91148571 38.3607429,9.85465714 38.2529143,9.76431429 L29.4794571,2.38971429 C28.9009714,1.90302857 28.1651143,1.63491429 27.4074,1.63491429 L13.6825714,1.63491429 C13.005,1.63491429 12.3828,1.97588571 12.0170571,2.54708571 L7.9152,8.9658 C7.8234,9.11297143 7.67914286,9.2208 7.51302857,9.27034286 L2.55874286,10.7639143 C1.82288571,10.9854 1.35951429,11.7241714 1.47754286,12.4848 L2.17114286,16.9276286 C2.36785714,18.1851429 3.43448571,19.0987714 4.70802857,19.0987714 L10.8702857,19.0987714 C11.2724571,19.0987714 11.5988571,19.4251714 11.5988571,19.8273429 C11.5988571,20.2295143 11.2724571,20.5559143 10.8702857,20.5559143 L4.70511429,20.5559143 C2.70882857,20.5559143 1.03457143,19.125 0.728571429,17.1520286 L0.0349714286,12.7092 C-0.1938,11.2345714 0.708171429,9.79928571 2.13471429,9.36942857 L6.83254286,7.95308571 L10.7901429,1.76022857 C11.424,0.770828571 12.5052,0.179228571 13.6825714,0.179228571 L27.4103143,0.179228571 C28.509,0.179228571 29.5770857,0.568285714 30.4178571,1.275 L39.0252,8.50971429 L48.5170286,9.66668571 C49.2630857,9.75848571 49.9217143,10.1358857 50.3734286,10.7347714 C50.8266,11.3322 51.0116571,12.0709714 50.8965429,12.8141143 L50.1198857,17.7873429 C49.8707143,19.3931143 48.5082857,20.5588286 46.8835714,20.5588286 Z" id="Shape"></path>
                <path d="M30.8331429,10.4972571 L14.1226286,10.4972571 C13.7204571,10.4972571 13.3940571,10.1708571 13.3940571,9.76868571 C13.3940571,9.36651429 13.7204571,9.04011429 14.1226286,9.04011429 L30.8331429,9.04011429 C31.2353143,9.04011429 31.5617143,9.36651429 31.5617143,9.76868571 C31.5617143,10.1708571 31.2353143,10.4972571 30.8331429,10.4972571 Z" id="Shape"></path>
            </g>
        </g>
    </g>
</svg>